<?xml version="1.0" encoding="UTF-8" standalone="no"?>
<!DOCTYPE svg PUBLIC "-//W3C//DTD SVG 1.1//EN" "http://www.w3.org/Graphics/SVG/1.1/DTD/svg11.dtd">
<svg xmlns:xlink="http://www.w3.org/1999/xlink" height="186.26666666666665mm" version="1.1" viewBox="0 0 528 528" width="186.26666666666665mm" x="0mm" y="0mm" xmlns="http://www.w3.org/2000/svg">
  <g transform="matrix(1 0 0 -1 264 264)">
    <path d="M0.0,263.5 C8.830640391904,263.5 16.0,256.330640391904 16.0,247.5 C16.0,238.669359608096 8.830640391904,231.5 0.0,231.5 C-8.830640391904,231.5 -16.0,238.669359608096 -16.0,247.5 C-16.0,256.330640391904 -8.830640391904,263.5 0.0,263.5 Z" style="fill:none;stroke:rgb(0,0,0);stroke-miterlimit:10;"/>
    <path d="M0.0,263.5 C8.830640391904,263.5 16.0,256.330640391904 16.0,247.5 C16.0,238.669359608096 8.830640391904,231.5 0.0,231.5 C-8.830640391904,231.5 -16.0,238.669359608096 -16.0,247.5 C-16.0,256.330640391904 -8.830640391904,263.5 0.0,263.5 Z" style="fill:rgb(200,78,79);stroke:none;"/>
    <path d="M-16.5,230.5 C-7.669359608096,230.5 -0.5,223.330640391904 -0.5,214.5 C-0.5,205.669359608096 -7.669359608096,198.5 -16.5,198.5 C-25.330640391903998,198.5 -32.5,205.669359608096 -32.5,214.5 C-32.5,223.330640391904 -25.330640391903998,230.5 -16.5,230.5 Z" style="fill:none;stroke:rgb(200,78,79);stroke-miterlimit:10;"/>
    <path d="M-16.5,230.5 C-7.669359608096,230.5 -0.5,223.330640391904 -0.5,214.5 C-0.5,205.669359608096 -7.669359608096,198.5 -16.5,198.5 C-25.330640391903998,198.5 -32.5,205.669359608096 -32.5,214.5 C-32.5,223.330640391904 -25.330640391903998,230.5 -16.5,230.5 Z" style="fill:rgb(177,122,50);stroke:none;"/>
    <path d="M0.5,198.5 L16.5,230.5 L32.5,198.5 L0.5,198.5 Z" style="fill:none;stroke:rgb(177,122,50);stroke-miterlimit:10;"/>
    <path d="M0.5,198.5 L16.5,230.5 L32.5,198.5 L0.5,198.5 Z" style="fill:rgb(156,55,103);stroke:none;"/>
    <path d="M-49.0,165.5 L-33.0,197.5 L-17.0,165.5 L-49.0,165.5 Z" style="fill:none;stroke:rgb(156,55,103);stroke-miterlimit:10;"/>
    <path d="M-49.0,165.5 L-33.0,197.5 L-17.0,165.5 L-49.0,165.5 Z" style="fill:rgb(209,117,78);stroke:none;"/>
    <path d="M-49.5,164.5 C-40.669359608096,164.5 -33.5,157.330640391904 -33.5,148.5 C-33.5,139.669359608096 -40.669359608096,132.5 -49.5,132.5 C-58.330640391904,132.5 -65.5,139.669359608096 -65.5,148.5 C-65.5,157.330640391904 -58.330640391904,164.5 -49.5,164.5 Z" style="fill:none;stroke:rgb(209,117,78);stroke-miterlimit:10;"/>
    <path d="M-49.5,164.5 C-40.669359608096,164.5 -33.5,157.330640391904 -33.5,148.5 C-33.5,139.669359608096 -40.669359608096,132.5 -49.5,132.5 C-58.330640391904,132.5 -65.5,139.669359608096 -65.5,148.5 C-65.5,157.330640391904 -58.330640391904,164.5 -49.5,164.5 Z" style="fill:rgb(127,46,59);stroke:none;"/>
    <path d="M-16.5,164.5 C-7.669359608096,164.5 -0.5,157.330640391904 -0.5,148.5 C-0.5,139.669359608096 -7.669359608096,132.5 -16.5,132.5 C-25.330640391903998,132.5 -32.5,139.669359608096 -32.5,148.5 C-32.5,157.330640391904 -25.330640391903998,164.5 -16.5,164.5 Z" style="fill:none;stroke:rgb(127,46,59);stroke-miterlimit:10;"/>
    <path d="M-16.5,164.5 C-7.669359608096,164.5 -0.5,157.330640391904 -0.5,148.5 C-0.5,139.669359608096 -7.669359608096,132.5 -16.5,132.5 C-25.330640391903998,132.5 -32.5,139.669359608096 -32.5,148.5 C-32.5,157.330640391904 -25.330640391903998,164.5 -16.5,164.5 Z" style="fill:rgb(136,24,56);stroke:none;"/>
    <path d="M33.0,197.5 C41.830640391904,197.5 49.0,190.330640391904 49.0,181.5 C49.0,172.669359608096 41.830640391904,165.5 33.0,165.5 C24.169359608096002,165.5 17.0,172.669359608096 17.0,181.5 C17.0,190.330640391904 24.169359608096002,197.5 33.0,197.5 Z" style="fill:none;stroke:rgb(136,24,56);stroke-miterlimit:10;"/>
    <path d="M33.0,197.5 C41.830640391904,197.5 49.0,190.330640391904 49.0,181.5 C49.0,172.669359608096 41.830640391904,165.5 33.0,165.5 C24.169359608096002,165.5 17.0,172.669359608096 17.0,181.5 C17.0,190.330640391904 24.169359608096002,197.5 33.0,197.5 Z" style="fill:rgb(191,50,42);stroke:none;"/>
    <path d="M16.5,164.5 C25.330640391903998,164.5 32.5,157.330640391904 32.5,148.5 C32.5,139.669359608096 25.330640391903998,132.5 16.5,132.5 C7.669359608096,132.5 0.5,139.669359608096 0.5,148.5 C0.5,157.330640391904 7.669359608096,164.5 16.5,164.5 Z" style="fill:none;stroke:rgb(191,50,42);stroke-miterlimit:10;"/>
    <path d="M16.5,164.5 C25.330640391903998,164.5 32.5,157.330640391904 32.5,148.5 C32.5,139.669359608096 25.330640391903998,132.5 16.5,132.5 C7.669359608096,132.5 0.5,139.669359608096 0.5,148.5 C0.5,157.330640391904 7.669359608096,164.5 16.5,164.5 Z" style="fill:rgb(160,39,51);stroke:none;"/>
    <path d="M49.5,164.5 C58.330640391904,164.5 65.5,157.330640391904 65.5,148.5 C65.5,139.669359608096 58.330640391904,132.5 49.5,132.5 C40.669359608096,132.5 33.5,139.669359608096 33.5,148.5 C33.5,157.330640391904 40.669359608096,164.5 49.5,164.5 Z" style="fill:none;stroke:rgb(160,39,51);stroke-miterlimit:10;"/>
    <path d="M49.5,164.5 C58.330640391904,164.5 65.5,157.330640391904 65.5,148.5 C65.5,139.669359608096 58.330640391904,132.5 49.5,132.5 C40.669359608096,132.5 33.5,139.669359608096 33.5,148.5 C33.5,157.330640391904 40.669359608096,164.5 49.5,164.5 Z" style="fill:rgb(180,126,49);stroke:none;"/>
    <path d="M-82.0,99.5 L-66.0,131.5 L-50.0,99.5 L-82.0,99.5 Z" style="fill:none;stroke:rgb(180,126,49);stroke-miterlimit:10;"/>
    <path d="M-82.0,99.5 L-66.0,131.5 L-50.0,99.5 L-82.0,99.5 Z" style="fill:rgb(203,58,138);stroke:none;"/>
    <path d="M-82.5,98.5 C-73.669359608096,98.5 -66.5,91.330640391904 -66.5,82.5 C-66.5,73.669359608096 -73.669359608096,66.5 -82.5,66.5 C-91.330640391904,66.5 -98.5,73.669359608096 -98.5,82.5 C-98.5,91.330640391904 -91.330640391904,98.5 -82.5,98.5 Z" style="fill:none;stroke:rgb(203,58,138);stroke-miterlimit:10;"/>
    <path d="M-82.5,98.5 C-73.669359608096,98.5 -66.5,91.330640391904 -66.5,82.5 C-66.5,73.669359608096 -73.669359608096,66.5 -82.5,66.5 C-91.330640391904,66.5 -98.5,73.669359608096 -98.5,82.5 C-98.5,91.330640391904 -91.330640391904,98.5 -82.5,98.5 Z" style="fill:rgb(164,70,122);stroke:none;"/>
    <path d="M-49.5,98.5 C-40.669359608096,98.5 -33.5,91.330640391904 -33.5,82.5 C-33.5,73.669359608096 -40.669359608096,66.5 -49.5,66.5 C-58.330640391904,66.5 -65.5,73.669359608096 -65.5,82.5 C-65.5,91.330640391904 -58.330640391904,98.5 -49.5,98.5 Z" style="fill:none;stroke:rgb(164,70,122);stroke-miterlimit:10;"/>
    <path d="M-49.5,98.5 C-40.669359608096,98.5 -33.5,91.330640391904 -33.5,82.5 C-33.5,73.669359608096 -40.669359608096,66.5 -49.5,66.5 C-58.330640391904,66.5 -65.5,73.669359608096 -65.5,82.5 C-65.5,91.330640391904 -58.330640391904,98.5 -49.5,98.5 Z" style="fill:rgb(143,38,64);stroke:none;"/>
    <path d="M-99.0,65.5 C-90.169359608096,65.5 -83.0,58.330640391904 -83.0,49.5 C-83.0,40.669359608096 -90.169359608096,33.5 -99.0,33.5 C-107.830640391904,33.5 -115.0,40.669359608096 -115.0,49.5 C-115.0,58.330640391904 -107.830640391904,65.5 -99.0,65.5 Z" style="fill:none;stroke:rgb(143,38,64);stroke-miterlimit:10;"/>
    <path d="M-99.0,65.5 C-90.169359608096,65.5 -83.0,58.330640391904 -83.0,49.5 C-83.0,40.669359608096 -90.169359608096,33.5 -99.0,33.5 C-107.830640391904,33.5 -115.0,40.669359608096 -115.0,49.5 C-115.0,58.330640391904 -107.830640391904,65.5 -99.0,65.5 Z" style="fill:rgb(129,55,87);stroke:none;"/>
    <path d="M-131.5,0.5 L-115.5,32.5 L-99.5,0.5 L-131.5,0.5 Z" style="fill:none;stroke:rgb(129,55,87);stroke-miterlimit:10;"/>
    <path d="M-131.5,0.5 L-115.5,32.5 L-99.5,0.5 L-131.5,0.5 Z" style="fill:rgb(138,76,47);stroke:none;"/>
    <path d="M-82.5,32.5 C-73.669359608096,32.5 -66.5,25.330640391903998 -66.5,16.5 C-66.5,7.669359608096 -73.669359608096,0.5 -82.5,0.5 C-91.330640391904,0.5 -98.5,7.669359608096 -98.5,16.5 C-98.5,25.330640391903998 -91.330640391904,32.5 -82.5,32.5 Z" style="fill:none;stroke:rgb(138,76,47);stroke-miterlimit:10;"/>
    <path d="M-82.5,32.5 C-73.669359608096,32.5 -66.5,25.330640391903998 -66.5,16.5 C-66.5,7.669359608096 -73.669359608096,0.5 -82.5,0.5 C-91.330640391904,0.5 -98.5,7.669359608096 -98.5,16.5 C-98.5,25.330640391903998 -91.330640391904,32.5 -82.5,32.5 Z" style="fill:rgb(207,124,82);stroke:none;"/>
    <path d="M-49.0,33.5 L-33.0,65.5 L-17.0,33.5 L-49.0,33.5 Z" style="fill:none;stroke:rgb(207,124,82);stroke-miterlimit:10;"/>
    <path d="M-49.0,33.5 L-33.0,65.5 L-17.0,33.5 L-49.0,33.5 Z" style="fill:rgb(196,82,135);stroke:none;"/>
    <path d="M-65.5,0.5 L-49.5,32.5 L-33.5,0.5 L-65.5,0.5 Z" style="fill:none;stroke:rgb(196,82,135);stroke-miterlimit:10;"/>
    <path d="M-65.5,0.5 L-49.5,32.5 L-33.5,0.5 L-65.5,0.5 Z" style="fill:rgb(215,76,87);stroke:none;"/>
    <path d="M-16.5,32.5 C-7.669359608096,32.5 -0.5,25.330640391903998 -0.5,16.5 C-0.5,7.669359608096 -7.669359608096,0.5 -16.5,0.5 C-25.330640391903998,0.5 -32.5,7.669359608096 -32.5,16.5 C-32.5,25.330640391903998 -25.330640391903998,32.5 -16.5,32.5 Z" style="fill:none;stroke:rgb(215,76,87);stroke-miterlimit:10;"/>
    <path d="M-16.5,32.5 C-7.669359608096,32.5 -0.5,25.330640391903998 -0.5,16.5 C-0.5,7.669359608096 -7.669359608096,0.5 -16.5,0.5 C-25.330640391903998,0.5 -32.5,7.669359608096 -32.5,16.5 C-32.5,25.330640391903998 -25.330640391903998,32.5 -16.5,32.5 Z" style="fill:rgb(190,92,51);stroke:none;"/>
    <path d="M66.0,131.5 C74.830640391904,131.5 82.0,124.330640391904 82.0,115.5 C82.0,106.669359608096 74.830640391904,99.5 66.0,99.5 C57.169359608096,99.5 50.0,106.669359608096 50.0,115.5 C50.0,124.330640391904 57.169359608096,131.5 66.0,131.5 Z" style="fill:none;stroke:rgb(190,92,51);stroke-miterlimit:10;"/>
    <path d="M66.0,131.5 C74.830640391904,131.5 82.0,124.330640391904 82.0,115.5 C82.0,106.669359608096 74.830640391904,99.5 66.0,99.5 C57.169359608096,99.5 50.0,106.669359608096 50.0,115.5 C50.0,124.330640391904 57.169359608096,131.5 66.0,131.5 Z" style="fill:rgb(171,84,45);stroke:none;"/>
    <path d="M33.5,66.5 L49.5,98.5 L65.5,66.5 L33.5,66.5 Z" style="fill:none;stroke:rgb(171,84,45);stroke-miterlimit:10;"/>
    <path d="M33.5,66.5 L49.5,98.5 L65.5,66.5 L33.5,66.5 Z" style="fill:rgb(162,57,113);stroke:none;"/>
    <path d="M82.5,98.5 C91.330640391904,98.5 98.5,91.330640391904 98.5,82.5 C98.5,73.669359608096 91.330640391904,66.5 82.5,66.5 C73.669359608096,66.5 66.5,73.669359608096 66.5,82.5 C66.5,91.330640391904 73.669359608096,98.5 82.5,98.5 Z" style="fill:none;stroke:rgb(162,57,113);stroke-miterlimit:10;"/>
    <path d="M82.5,98.5 C91.330640391904,98.5 98.5,91.330640391904 98.5,82.5 C98.5,73.669359608096 91.330640391904,66.5 82.5,66.5 C73.669359608096,66.5 66.5,73.669359608096 66.5,82.5 C66.5,91.330640391904 73.669359608096,98.5 82.5,98.5 Z" style="fill:rgb(139,83,40);stroke:none;"/>
    <path d="M17.0,33.5 L33.0,65.5 L49.0,33.5 L17.0,33.5 Z" style="fill:none;stroke:rgb(139,83,40);stroke-miterlimit:10;"/>
    <path d="M17.0,33.5 L33.0,65.5 L49.0,33.5 L17.0,33.5 Z" style="fill:rgb(135,30,66);stroke:none;"/>
    <path d="M0.5,0.5 L16.5,32.5 L32.5,0.5 L0.5,0.5 Z" style="fill:none;stroke:rgb(135,30,66);stroke-miterlimit:10;"/>
    <path d="M0.5,0.5 L16.5,32.5 L32.5,0.5 L0.5,0.5 Z" style="fill:rgb(167,100,56);stroke:none;"/>
    <path d="M33.5,0.5 L49.5,32.5 L65.5,0.5 L33.5,0.5 Z" style="fill:none;stroke:rgb(167,100,56);stroke-miterlimit:10;"/>
    <path d="M33.5,0.5 L49.5,32.5 L65.5,0.5 L33.5,0.5 Z" style="fill:rgb(178,55,99);stroke:none;"/>
    <path d="M83.0,33.5 L99.0,65.5 L115.0,33.5 L83.0,33.5 Z" style="fill:none;stroke:rgb(178,55,99);stroke-miterlimit:10;"/>
    <path d="M83.0,33.5 L99.0,65.5 L115.0,33.5 L83.0,33.5 Z" style="fill:rgb(183,50,115);stroke:none;"/>
    <path d="M66.5,0.5 L82.5,32.5 L98.5,0.5 L66.5,0.5 Z" style="fill:none;stroke:rgb(183,50,115);stroke-miterlimit:10;"/>
    <path d="M66.5,0.5 L82.5,32.5 L98.5,0.5 L66.5,0.5 Z" style="fill:rgb(209,40,46);stroke:none;"/>
    <path d="M115.5,32.5 C124.330640391904,32.5 131.5,25.330640391903998 131.5,16.5 C131.5,7.669359608096 124.330640391904,0.5 115.5,0.5 C106.669359608096,0.5 99.5,7.669359608096 99.5,16.5 C99.5,25.330640391903998 106.669359608096,32.5 115.5,32.5 Z" style="fill:none;stroke:rgb(209,40,46);stroke-miterlimit:10;"/>
    <path d="M115.5,32.5 C124.330640391904,32.5 131.5,25.330640391903998 131.5,16.5 C131.5,7.669359608096 124.330640391904,0.5 115.5,0.5 C106.669359608096,0.5 99.5,7.669359608096 99.5,16.5 C99.5,25.330640391903998 106.669359608096,32.5 115.5,32.5 Z" style="fill:rgb(210,86,125);stroke:none;"/>
    <path d="M-148.0,-32.5 L-132.0,-0.5 L-116.0,-32.5 L-148.0,-32.5 Z" style="fill:none;stroke:rgb(210,86,125);stroke-miterlimit:10;"/>
    <path d="M-148.0,-32.5 L-132.0,-0.5 L-116.0,-32.5 L-148.0,-32.5 Z" style="fill:rgb(186,72,49);stroke:none;"/>
    <path d="M-148.5,-33.5 C-139.669359608096,-33.5 -132.5,-40.669359608096 -132.5,-49.5 C-132.5,-58.330640391904 -139.669359608096,-65.5 -148.5,-65.5 C-157.330640391904,-65.5 -164.5,-58.330640391904 -164.5,-49.5 C-164.5,-40.669359608096 -157.330640391904,-33.5 -148.5,-33.5 Z" style="fill:none;stroke:rgb(186,72,49);stroke-miterlimit:10;"/>
    <path d="M-148.5,-33.5 C-139.669359608096,-33.5 -132.5,-40.669359608096 -132.5,-49.5 C-132.5,-58.330640391904 -139.669359608096,-65.5 -148.5,-65.5 C-157.330640391904,-65.5 -164.5,-58.330640391904 -164.5,-49.5 C-164.5,-40.669359608096 -157.330640391904,-33.5 -148.5,-33.5 Z" style="fill:rgb(202,144,85);stroke:none;"/>
    <path d="M-131.5,-65.5 L-115.5,-33.5 L-99.5,-65.5 L-131.5,-65.5 Z" style="fill:none;stroke:rgb(202,144,85);stroke-miterlimit:10;"/>
    <path d="M-131.5,-65.5 L-115.5,-33.5 L-99.5,-65.5 L-131.5,-65.5 Z" style="fill:rgb(183,60,34);stroke:none;"/>
    <path d="M-181.0,-98.5 L-165.0,-66.5 L-149.0,-98.5 L-181.0,-98.5 Z" style="fill:none;stroke:rgb(183,60,34);stroke-miterlimit:10;"/>
    <path d="M-181.0,-98.5 L-165.0,-66.5 L-149.0,-98.5 L-181.0,-98.5 Z" style="fill:rgb(147,40,47);stroke:none;"/>
    <path d="M-197.5,-131.5 L-181.5,-99.5 L-165.5,-131.5 L-197.5,-131.5 Z" style="fill:none;stroke:rgb(147,40,47);stroke-miterlimit:10;"/>
    <path d="M-197.5,-131.5 L-181.5,-99.5 L-165.5,-131.5 L-197.5,-131.5 Z" style="fill:rgb(198,44,97);stroke:none;"/>
    <path d="M-148.5,-99.5 C-139.669359608096,-99.5 -132.5,-106.669359608096 -132.5,-115.5 C-132.5,-124.330640391904 -139.669359608096,-131.5 -148.5,-131.5 C-157.330640391904,-131.5 -164.5,-124.330640391904 -164.5,-115.5 C-164.5,-106.669359608096 -157.330640391904,-99.5 -148.5,-99.5 Z" style="fill:none;stroke:rgb(198,44,97);stroke-miterlimit:10;"/>
    <path d="M-148.5,-99.5 C-139.669359608096,-99.5 -132.5,-106.669359608096 -132.5,-115.5 C-132.5,-124.330640391904 -139.669359608096,-131.5 -148.5,-131.5 C-157.330640391904,-131.5 -164.5,-124.330640391904 -164.5,-115.5 C-164.5,-106.669359608096 -157.330640391904,-99.5 -148.5,-99.5 Z" style="fill:rgb(143,38,62);stroke:none;"/>
    <path d="M-115.0,-98.5 L-99.0,-66.5 L-83.0,-98.5 L-115.0,-98.5 Z" style="fill:none;stroke:rgb(143,38,62);stroke-miterlimit:10;"/>
    <path d="M-115.0,-98.5 L-99.0,-66.5 L-83.0,-98.5 L-115.0,-98.5 Z" style="fill:rgb(196,129,65);stroke:none;"/>
    <path d="M-115.5,-99.5 C-106.669359608096,-99.5 -99.5,-106.669359608096 -99.5,-115.5 C-99.5,-124.330640391904 -106.669359608096,-131.5 -115.5,-131.5 C-124.330640391904,-131.5 -131.5,-124.330640391904 -131.5,-115.5 C-131.5,-106.669359608096 -124.330640391904,-99.5 -115.5,-99.5 Z" style="fill:none;stroke:rgb(196,129,65);stroke-miterlimit:10;"/>
    <path d="M-115.5,-99.5 C-106.669359608096,-99.5 -99.5,-106.669359608096 -99.5,-115.5 C-99.5,-124.330640391904 -106.669359608096,-131.5 -115.5,-131.5 C-124.330640391904,-131.5 -131.5,-124.330640391904 -131.5,-115.5 C-131.5,-106.669359608096 -124.330640391904,-99.5 -115.5,-99.5 Z" style="fill:rgb(205,100,139);stroke:none;"/>
    <path d="M-98.5,-131.5 L-82.5,-99.5 L-66.5,-131.5 L-98.5,-131.5 Z" style="fill:none;stroke:rgb(205,100,139);stroke-miterlimit:10;"/>
    <path d="M-98.5,-131.5 L-82.5,-99.5 L-66.5,-131.5 L-98.5,-131.5 Z" style="fill:rgb(194,86,116);stroke:none;"/>
    <path d="M-198.0,-132.5 C-189.169359608096,-132.5 -182.0,-139.669359608096 -182.0,-148.5 C-182.0,-157.330640391904 -189.169359608096,-164.5 -198.0,-164.5 C-206.830640391904,-164.5 -214.0,-157.330640391904 -214.0,-148.5 C-214.0,-139.669359608096 -206.830640391904,-132.5 -198.0,-132.5 Z" style="fill:none;stroke:rgb(194,86,116);stroke-miterlimit:10;"/>
    <path d="M-198.0,-132.5 C-189.169359608096,-132.5 -182.0,-139.669359608096 -182.0,-148.5 C-182.0,-157.330640391904 -189.169359608096,-164.5 -198.0,-164.5 C-206.830640391904,-164.5 -214.0,-157.330640391904 -214.0,-148.5 C-214.0,-139.669359608096 -206.830640391904,-132.5 -198.0,-132.5 Z" style="fill:rgb(165,117,48);stroke:none;"/>
    <path d="M-214.5,-165.5 C-205.669359608096,-165.5 -198.5,-172.669359608096 -198.5,-181.5 C-198.5,-190.330640391904 -205.669359608096,-197.5 -214.5,-197.5 C-223.330640391904,-197.5 -230.5,-190.330640391904 -230.5,-181.5 C-230.5,-172.669359608096 -223.330640391904,-165.5 -214.5,-165.5 Z" style="fill:none;stroke:rgb(165,117,48);stroke-miterlimit:10;"/>
    <path d="M-214.5,-165.5 C-205.669359608096,-165.5 -198.5,-172.669359608096 -198.5,-181.5 C-198.5,-190.330640391904 -205.669359608096,-197.5 -214.5,-197.5 C-223.330640391904,-197.5 -230.5,-190.330640391904 -230.5,-181.5 C-230.5,-172.669359608096 -223.330640391904,-165.5 -214.5,-165.5 Z" style="fill:rgb(168,89,36);stroke:none;"/>
    <path d="M-181.5,-165.5 C-172.669359608096,-165.5 -165.5,-172.669359608096 -165.5,-181.5 C-165.5,-190.330640391904 -172.669359608096,-197.5 -181.5,-197.5 C-190.330640391904,-197.5 -197.5,-190.330640391904 -197.5,-181.5 C-197.5,-172.669359608096 -190.330640391904,-165.5 -181.5,-165.5 Z" style="fill:none;stroke:rgb(168,89,36);stroke-miterlimit:10;"/>
    <path d="M-181.5,-165.5 C-172.669359608096,-165.5 -165.5,-172.669359608096 -165.5,-181.5 C-165.5,-190.330640391904 -172.669359608096,-197.5 -181.5,-197.5 C-190.330640391904,-197.5 -197.5,-190.330640391904 -197.5,-181.5 C-197.5,-172.669359608096 -190.330640391904,-165.5 -181.5,-165.5 Z" style="fill:rgb(151,31,28);stroke:none;"/>
    <path d="M-231.0,-198.5 C-222.169359608096,-198.5 -215.0,-205.669359608096 -215.0,-214.5 C-215.0,-223.330640391904 -222.169359608096,-230.5 -231.0,-230.5 C-239.830640391904,-230.5 -247.0,-223.330640391904 -247.0,-214.5 C-247.0,-205.669359608096 -239.830640391904,-198.5 -231.0,-198.5 Z" style="fill:none;stroke:rgb(151,31,28);stroke-miterlimit:10;"/>
    <path d="M-231.0,-198.5 C-222.169359608096,-198.5 -215.0,-205.669359608096 -215.0,-214.5 C-215.0,-223.330640391904 -222.169359608096,-230.5 -231.0,-230.5 C-239.830640391904,-230.5 -247.0,-223.330640391904 -247.0,-214.5 C-247.0,-205.669359608096 -239.830640391904,-198.5 -231.0,-198.5 Z" style="fill:rgb(202,52,101);stroke:none;"/>
    <path d="M-247.5,-231.5 C-238.669359608096,-231.5 -231.5,-238.669359608096 -231.5,-247.5 C-231.5,-256.330640391904 -238.669359608096,-263.5 -247.5,-263.5 C-256.330640391904,-263.5 -263.5,-256.330640391904 -263.5,-247.5 C-263.5,-238.669359608096 -256.330640391904,-231.5 -247.5,-231.5 Z" style="fill:none;stroke:rgb(202,52,101);stroke-miterlimit:10;"/>
    <path d="M-247.5,-231.5 C-238.669359608096,-231.5 -231.5,-238.669359608096 -231.5,-247.5 C-231.5,-256.330640391904 -238.669359608096,-263.5 -247.5,-263.5 C-256.330640391904,-263.5 -263.5,-256.330640391904 -263.5,-247.5 C-263.5,-238.669359608096 -256.330640391904,-231.5 -247.5,-231.5 Z" style="fill:rgb(149,70,51);stroke:none;"/>
    <path d="M-214.5,-231.5 C-205.669359608096,-231.5 -198.5,-238.669359608096 -198.5,-247.5 C-198.5,-256.330640391904 -205.669359608096,-263.5 -214.5,-263.5 C-223.330640391904,-263.5 -230.5,-256.330640391904 -230.5,-247.5 C-230.5,-238.669359608096 -223.330640391904,-231.5 -214.5,-231.5 Z" style="fill:none;stroke:rgb(149,70,51);stroke-miterlimit:10;"/>
    <path d="M-214.5,-231.5 C-205.669359608096,-231.5 -198.5,-238.669359608096 -198.5,-247.5 C-198.5,-256.330640391904 -205.669359608096,-263.5 -214.5,-263.5 C-223.330640391904,-263.5 -230.5,-256.330640391904 -230.5,-247.5 C-230.5,-238.669359608096 -223.330640391904,-231.5 -214.5,-231.5 Z" style="fill:rgb(215,70,107);stroke:none;"/>
    <path d="M-181.0,-230.5 L-165.0,-198.5 L-149.0,-230.5 L-181.0,-230.5 Z" style="fill:none;stroke:rgb(215,70,107);stroke-miterlimit:10;"/>
    <path d="M-181.0,-230.5 L-165.0,-198.5 L-149.0,-230.5 L-181.0,-230.5 Z" style="fill:rgb(187,122,36);stroke:none;"/>
    <path d="M-181.5,-231.5 C-172.669359608096,-231.5 -165.5,-238.669359608096 -165.5,-247.5 C-165.5,-256.330640391904 -172.669359608096,-263.5 -181.5,-263.5 C-190.330640391904,-263.5 -197.5,-256.330640391904 -197.5,-247.5 C-197.5,-238.669359608096 -190.330640391904,-231.5 -181.5,-231.5 Z" style="fill:none;stroke:rgb(187,122,36);stroke-miterlimit:10;"/>
    <path d="M-181.5,-231.5 C-172.669359608096,-231.5 -165.5,-238.669359608096 -165.5,-247.5 C-165.5,-256.330640391904 -172.669359608096,-263.5 -181.5,-263.5 C-190.330640391904,-263.5 -197.5,-256.330640391904 -197.5,-247.5 C-197.5,-238.669359608096 -190.330640391904,-231.5 -181.5,-231.5 Z" style="fill:rgb(191,107,76);stroke:none;"/>
    <path d="M-148.5,-231.5 C-139.669359608096,-231.5 -132.5,-238.669359608096 -132.5,-247.5 C-132.5,-256.330640391904 -139.669359608096,-263.5 -148.5,-263.5 C-157.330640391904,-263.5 -164.5,-256.330640391904 -164.5,-247.5 C-164.5,-238.669359608096 -157.330640391904,-231.5 -148.5,-231.5 Z" style="fill:none;stroke:rgb(191,107,76);stroke-miterlimit:10;"/>
    <path d="M-148.5,-231.5 C-139.669359608096,-231.5 -132.5,-238.669359608096 -132.5,-247.5 C-132.5,-256.330640391904 -139.669359608096,-263.5 -148.5,-263.5 C-157.330640391904,-263.5 -164.5,-256.330640391904 -164.5,-247.5 C-164.5,-238.669359608096 -157.330640391904,-231.5 -148.5,-231.5 Z" style="fill:rgb(151,47,96);stroke:none;"/>
    <path d="M-82.0,-164.5 L-66.0,-132.5 L-50.0,-164.5 L-82.0,-164.5 Z" style="fill:none;stroke:rgb(151,47,96);stroke-miterlimit:10;"/>
    <path d="M-82.0,-164.5 L-66.0,-132.5 L-50.0,-164.5 L-82.0,-164.5 Z" style="fill:rgb(191,121,63);stroke:none;"/>
    <path d="M-98.5,-197.5 L-82.5,-165.5 L-66.5,-197.5 L-98.5,-197.5 Z" style="fill:none;stroke:rgb(191,121,63);stroke-miterlimit:10;"/>
    <path d="M-98.5,-197.5 L-82.5,-165.5 L-66.5,-197.5 L-98.5,-197.5 Z" style="fill:rgb(187,61,120);stroke:none;"/>
    <path d="M-65.5,-197.5 L-49.5,-165.5 L-33.5,-197.5 L-65.5,-197.5 Z" style="fill:none;stroke:rgb(187,61,120);stroke-miterlimit:10;"/>
    <path d="M-65.5,-197.5 L-49.5,-165.5 L-33.5,-197.5 L-65.5,-197.5 Z" style="fill:rgb(160,88,54);stroke:none;"/>
    <path d="M-99.0,-198.5 C-90.169359608096,-198.5 -83.0,-205.669359608096 -83.0,-214.5 C-83.0,-223.330640391904 -90.169359608096,-230.5 -99.0,-230.5 C-107.830640391904,-230.5 -115.0,-223.330640391904 -115.0,-214.5 C-115.0,-205.669359608096 -107.830640391904,-198.5 -99.0,-198.5 Z" style="fill:none;stroke:rgb(160,88,54);stroke-miterlimit:10;"/>
    <path d="M-99.0,-198.5 C-90.169359608096,-198.5 -83.0,-205.669359608096 -83.0,-214.5 C-83.0,-223.330640391904 -90.169359608096,-230.5 -99.0,-230.5 C-107.830640391904,-230.5 -115.0,-223.330640391904 -115.0,-214.5 C-115.0,-205.669359608096 -107.830640391904,-198.5 -99.0,-198.5 Z" style="fill:rgb(219,154,83);stroke:none;"/>
    <path d="M-115.5,-231.5 C-106.669359608096,-231.5 -99.5,-238.669359608096 -99.5,-247.5 C-99.5,-256.330640391904 -106.669359608096,-263.5 -115.5,-263.5 C-124.330640391904,-263.5 -131.5,-256.330640391904 -131.5,-247.5 C-131.5,-238.669359608096 -124.330640391904,-231.5 -115.5,-231.5 Z" style="fill:none;stroke:rgb(219,154,83);stroke-miterlimit:10;"/>
    <path d="M-115.5,-231.5 C-106.669359608096,-231.5 -99.5,-238.669359608096 -99.5,-247.5 C-99.5,-256.330640391904 -106.669359608096,-263.5 -115.5,-263.5 C-124.330640391904,-263.5 -131.5,-256.330640391904 -131.5,-247.5 C-131.5,-238.669359608096 -124.330640391904,-231.5 -115.5,-231.5 Z" style="fill:rgb(138,52,55);stroke:none;"/>
    <path d="M-82.5,-231.5 C-73.669359608096,-231.5 -66.5,-238.669359608096 -66.5,-247.5 C-66.5,-256.330640391904 -73.669359608096,-263.5 -82.5,-263.5 C-91.330640391904,-263.5 -98.5,-256.330640391904 -98.5,-247.5 C-98.5,-238.669359608096 -91.330640391904,-231.5 -82.5,-231.5 Z" style="fill:none;stroke:rgb(138,52,55);stroke-miterlimit:10;"/>
    <path d="M-82.5,-231.5 C-73.669359608096,-231.5 -66.5,-238.669359608096 -66.5,-247.5 C-66.5,-256.330640391904 -73.669359608096,-263.5 -82.5,-263.5 C-91.330640391904,-263.5 -98.5,-256.330640391904 -98.5,-247.5 C-98.5,-238.669359608096 -91.330640391904,-231.5 -82.5,-231.5 Z" style="fill:rgb(159,57,32);stroke:none;"/>
    <path d="M-33.0,-198.5 C-24.169359608096002,-198.5 -17.0,-205.669359608096 -17.0,-214.5 C-17.0,-223.330640391904 -24.169359608096002,-230.5 -33.0,-230.5 C-41.830640391904,-230.5 -49.0,-223.330640391904 -49.0,-214.5 C-49.0,-205.669359608096 -41.830640391904,-198.5 -33.0,-198.5 Z" style="fill:none;stroke:rgb(159,57,32);stroke-miterlimit:10;"/>
    <path d="M-33.0,-198.5 C-24.169359608096002,-198.5 -17.0,-205.669359608096 -17.0,-214.5 C-17.0,-223.330640391904 -24.169359608096002,-230.5 -33.0,-230.5 C-41.830640391904,-230.5 -49.0,-223.330640391904 -49.0,-214.5 C-49.0,-205.669359608096 -41.830640391904,-198.5 -33.0,-198.5 Z" style="fill:rgb(185,95,86);stroke:none;"/>
    <path d="M-65.5,-263.5 L-49.5,-231.5 L-33.5,-263.5 L-65.5,-263.5 Z" style="fill:none;stroke:rgb(185,95,86);stroke-miterlimit:10;"/>
    <path d="M-65.5,-263.5 L-49.5,-231.5 L-33.5,-263.5 L-65.5,-263.5 Z" style="fill:rgb(131,29,75);stroke:none;"/>
    <path d="M-32.5,-263.5 L-16.5,-231.5 L-0.5,-263.5 L-32.5,-263.5 Z" style="fill:none;stroke:rgb(131,29,75);stroke-miterlimit:10;"/>
    <path d="M-32.5,-263.5 L-16.5,-231.5 L-0.5,-263.5 L-32.5,-263.5 Z" style="fill:rgb(178,60,72);stroke:none;"/>
    <path d="M132.0,-0.5 C140.830640391904,-0.5 148.0,-7.669359608096 148.0,-16.5 C148.0,-25.330640391903998 140.830640391904,-32.5 132.0,-32.5 C123.169359608096,-32.5 116.0,-25.330640391903998 116.0,-16.5 C116.0,-7.669359608096 123.169359608096,-0.5 132.0,-0.5 Z" style="fill:none;stroke:rgb(178,60,72);stroke-miterlimit:10;"/>
    <path d="M132.0,-0.5 C140.830640391904,-0.5 148.0,-7.669359608096 148.0,-16.5 C148.0,-25.330640391903998 140.830640391904,-32.5 132.0,-32.5 C123.169359608096,-32.5 116.0,-25.330640391903998 116.0,-16.5 C116.0,-7.669359608096 123.169359608096,-0.5 132.0,-0.5 Z" style="fill:rgb(159,49,89);stroke:none;"/>
    <path d="M115.5,-33.5 C124.330640391904,-33.5 131.5,-40.669359608096 131.5,-49.5 C131.5,-58.330640391904 124.330640391904,-65.5 115.5,-65.5 C106.669359608096,-65.5 99.5,-58.330640391904 99.5,-49.5 C99.5,-40.669359608096 106.669359608096,-33.5 115.5,-33.5 Z" style="fill:none;stroke:rgb(159,49,89);stroke-miterlimit:10;"/>
    <path d="M115.5,-33.5 C124.330640391904,-33.5 131.5,-40.669359608096 131.5,-49.5 C131.5,-58.330640391904 124.330640391904,-65.5 115.5,-65.5 C106.669359608096,-65.5 99.5,-58.330640391904 99.5,-49.5 C99.5,-40.669359608096 106.669359608096,-33.5 115.5,-33.5 Z" style="fill:rgb(173,127,63);stroke:none;"/>
    <path d="M132.5,-65.5 L148.5,-33.5 L164.5,-65.5 L132.5,-65.5 Z" style="fill:none;stroke:rgb(173,127,63);stroke-miterlimit:10;"/>
    <path d="M132.5,-65.5 L148.5,-33.5 L164.5,-65.5 L132.5,-65.5 Z" style="fill:rgb(215,92,69);stroke:none;"/>
    <path d="M99.0,-66.5 C107.830640391904,-66.5 115.0,-73.669359608096 115.0,-82.5 C115.0,-91.330640391904 107.830640391904,-98.5 99.0,-98.5 C90.169359608096,-98.5 83.0,-91.330640391904 83.0,-82.5 C83.0,-73.669359608096 90.169359608096,-66.5 99.0,-66.5 Z" style="fill:none;stroke:rgb(215,92,69);stroke-miterlimit:10;"/>
    <path d="M99.0,-66.5 C107.830640391904,-66.5 115.0,-73.669359608096 115.0,-82.5 C115.0,-91.330640391904 107.830640391904,-98.5 99.0,-98.5 C90.169359608096,-98.5 83.0,-91.330640391904 83.0,-82.5 C83.0,-73.669359608096 90.169359608096,-66.5 99.0,-66.5 Z" style="fill:rgb(151,33,99);stroke:none;"/>
    <path d="M66.5,-131.5 L82.5,-99.5 L98.5,-131.5 L66.5,-131.5 Z" style="fill:none;stroke:rgb(151,33,99);stroke-miterlimit:10;"/>
    <path d="M66.5,-131.5 L82.5,-99.5 L98.5,-131.5 L66.5,-131.5 Z" style="fill:rgb(205,94,116);stroke:none;"/>
    <path d="M99.5,-131.5 L115.5,-99.5 L131.5,-131.5 L99.5,-131.5 Z" style="fill:none;stroke:rgb(205,94,116);stroke-miterlimit:10;"/>
    <path d="M99.5,-131.5 L115.5,-99.5 L131.5,-131.5 L99.5,-131.5 Z" style="fill:rgb(154,50,93);stroke:none;"/>
    <path d="M149.0,-98.5 L165.0,-66.5 L181.0,-98.5 L149.0,-98.5 Z" style="fill:none;stroke:rgb(154,50,93);stroke-miterlimit:10;"/>
    <path d="M149.0,-98.5 L165.0,-66.5 L181.0,-98.5 L149.0,-98.5 Z" style="fill:rgb(166,47,53);stroke:none;"/>
    <path d="M148.5,-99.5 C157.330640391904,-99.5 164.5,-106.669359608096 164.5,-115.5 C164.5,-124.330640391904 157.330640391904,-131.5 148.5,-131.5 C139.669359608096,-131.5 132.5,-124.330640391904 132.5,-115.5 C132.5,-106.669359608096 139.669359608096,-99.5 148.5,-99.5 Z" style="fill:none;stroke:rgb(166,47,53);stroke-miterlimit:10;"/>
    <path d="M148.5,-99.5 C157.330640391904,-99.5 164.5,-106.669359608096 164.5,-115.5 C164.5,-124.330640391904 157.330640391904,-131.5 148.5,-131.5 C139.669359608096,-131.5 132.5,-124.330640391904 132.5,-115.5 C132.5,-106.669359608096 139.669359608096,-99.5 148.5,-99.5 Z" style="fill:rgb(156,42,110);stroke:none;"/>
    <path d="M181.5,-99.5 C190.330640391904,-99.5 197.5,-106.669359608096 197.5,-115.5 C197.5,-124.330640391904 190.330640391904,-131.5 181.5,-131.5 C172.669359608096,-131.5 165.5,-124.330640391904 165.5,-115.5 C165.5,-106.669359608096 172.669359608096,-99.5 181.5,-99.5 Z" style="fill:none;stroke:rgb(156,42,110);stroke-miterlimit:10;"/>
    <path d="M181.5,-99.5 C190.330640391904,-99.5 197.5,-106.669359608096 197.5,-115.5 C197.5,-124.330640391904 190.330640391904,-131.5 181.5,-131.5 C172.669359608096,-131.5 165.5,-124.330640391904 165.5,-115.5 C165.5,-106.669359608096 172.669359608096,-99.5 181.5,-99.5 Z" style="fill:rgb(164,101,43);stroke:none;"/>
    <path d="M66.0,-132.5 C74.830640391904,-132.5 82.0,-139.669359608096 82.0,-148.5 C82.0,-157.330640391904 74.830640391904,-164.5 66.0,-164.5 C57.169359608096,-164.5 50.0,-157.330640391904 50.0,-148.5 C50.0,-139.669359608096 57.169359608096,-132.5 66.0,-132.5 Z" style="fill:none;stroke:rgb(164,101,43);stroke-miterlimit:10;"/>
    <path d="M66.0,-132.5 C74.830640391904,-132.5 82.0,-139.669359608096 82.0,-148.5 C82.0,-157.330640391904 74.830640391904,-164.5 66.0,-164.5 C57.169359608096,-164.5 50.0,-157.330640391904 50.0,-148.5 C50.0,-139.669359608096 57.169359608096,-132.5 66.0,-132.5 Z" style="fill:rgb(158,57,65);stroke:none;"/>
    <path d="M33.5,-197.5 L49.5,-165.5 L65.5,-197.5 L33.5,-197.5 Z" style="fill:none;stroke:rgb(158,57,65);stroke-miterlimit:10;"/>
    <path d="M33.5,-197.5 L49.5,-165.5 L65.5,-197.5 L33.5,-197.5 Z" style="fill:rgb(200,80,85);stroke:none;"/>
    <path d="M66.5,-197.5 L82.5,-165.5 L98.5,-197.5 L66.5,-197.5 Z" style="fill:none;stroke:rgb(200,80,85);stroke-miterlimit:10;"/>
    <path d="M66.5,-197.5 L82.5,-165.5 L98.5,-197.5 L66.5,-197.5 Z" style="fill:rgb(195,62,66);stroke:none;"/>
    <path d="M33.0,-198.5 C41.830640391904,-198.5 49.0,-205.669359608096 49.0,-214.5 C49.0,-223.330640391904 41.830640391904,-230.5 33.0,-230.5 C24.169359608096002,-230.5 17.0,-223.330640391904 17.0,-214.5 C17.0,-205.669359608096 24.169359608096002,-198.5 33.0,-198.5 Z" style="fill:none;stroke:rgb(195,62,66);stroke-miterlimit:10;"/>
    <path d="M33.0,-198.5 C41.830640391904,-198.5 49.0,-205.669359608096 49.0,-214.5 C49.0,-223.330640391904 41.830640391904,-230.5 33.0,-230.5 C24.169359608096002,-230.5 17.0,-223.330640391904 17.0,-214.5 C17.0,-205.669359608096 24.169359608096002,-198.5 33.0,-198.5 Z" style="fill:rgb(185,78,37);stroke:none;"/>
    <path d="M16.5,-231.5 C25.330640391903998,-231.5 32.5,-238.669359608096 32.5,-247.5 C32.5,-256.330640391904 25.330640391903998,-263.5 16.5,-263.5 C7.669359608096,-263.5 0.5,-256.330640391904 0.5,-247.5 C0.5,-238.669359608096 7.669359608096,-231.5 16.5,-231.5 Z" style="fill:none;stroke:rgb(185,78,37);stroke-miterlimit:10;"/>
    <path d="M16.5,-231.5 C25.330640391903998,-231.5 32.5,-238.669359608096 32.5,-247.5 C32.5,-256.330640391904 25.330640391903998,-263.5 16.5,-263.5 C7.669359608096,-263.5 0.5,-256.330640391904 0.5,-247.5 C0.5,-238.669359608096 7.669359608096,-231.5 16.5,-231.5 Z" style="fill:rgb(143,51,50);stroke:none;"/>
    <path d="M49.5,-231.5 C58.330640391904,-231.5 65.5,-238.669359608096 65.5,-247.5 C65.5,-256.330640391904 58.330640391904,-263.5 49.5,-263.5 C40.669359608096,-263.5 33.5,-256.330640391904 33.5,-247.5 C33.5,-238.669359608096 40.669359608096,-231.5 49.5,-231.5 Z" style="fill:none;stroke:rgb(143,51,50);stroke-miterlimit:10;"/>
    <path d="M49.5,-231.5 C58.330640391904,-231.5 65.5,-238.669359608096 65.5,-247.5 C65.5,-256.330640391904 58.330640391904,-263.5 49.5,-263.5 C40.669359608096,-263.5 33.5,-256.330640391904 33.5,-247.5 C33.5,-238.669359608096 40.669359608096,-231.5 49.5,-231.5 Z" style="fill:rgb(193,39,86);stroke:none;"/>
    <path d="M83.0,-230.5 L99.0,-198.5 L115.0,-230.5 L83.0,-230.5 Z" style="fill:none;stroke:rgb(193,39,86);stroke-miterlimit:10;"/>
    <path d="M83.0,-230.5 L99.0,-198.5 L115.0,-230.5 L83.0,-230.5 Z" style="fill:rgb(216,64,68);stroke:none;"/>
    <path d="M66.5,-263.5 L82.5,-231.5 L98.5,-263.5 L66.5,-263.5 Z" style="fill:none;stroke:rgb(216,64,68);stroke-miterlimit:10;"/>
    <path d="M66.5,-263.5 L82.5,-231.5 L98.5,-263.5 L66.5,-263.5 Z" style="fill:rgb(207,53,80);stroke:none;"/>
    <path d="M99.5,-263.5 L115.5,-231.5 L131.5,-263.5 L99.5,-263.5 Z" style="fill:none;stroke:rgb(207,53,80);stroke-miterlimit:10;"/>
    <path d="M99.5,-263.5 L115.5,-231.5 L131.5,-263.5 L99.5,-263.5 Z" style="fill:rgb(213,89,154);stroke:none;"/>
    <path d="M198.0,-132.5 C206.830640391904,-132.5 214.0,-139.669359608096 214.0,-148.5 C214.0,-157.330640391904 206.830640391904,-164.5 198.0,-164.5 C189.169359608096,-164.5 182.0,-157.330640391904 182.0,-148.5 C182.0,-139.669359608096 189.169359608096,-132.5 198.0,-132.5 Z" style="fill:none;stroke:rgb(213,89,154);stroke-miterlimit:10;"/>
    <path d="M198.0,-132.5 C206.830640391904,-132.5 214.0,-139.669359608096 214.0,-148.5 C214.0,-157.330640391904 206.830640391904,-164.5 198.0,-164.5 C189.169359608096,-164.5 182.0,-157.330640391904 182.0,-148.5 C182.0,-139.669359608096 189.169359608096,-132.5 198.0,-132.5 Z" style="fill:rgb(146,59,72);stroke:none;"/>
    <path d="M165.5,-197.5 L181.5,-165.5 L197.5,-197.5 L165.5,-197.5 Z" style="fill:none;stroke:rgb(146,59,72);stroke-miterlimit:10;"/>
    <path d="M165.5,-197.5 L181.5,-165.5 L197.5,-197.5 L165.5,-197.5 Z" style="fill:rgb(117,36,81);stroke:none;"/>
    <path d="M198.5,-197.5 L214.5,-165.5 L230.5,-197.5 L198.5,-197.5 Z" style="fill:none;stroke:rgb(117,36,81);stroke-miterlimit:10;"/>
    <path d="M198.5,-197.5 L214.5,-165.5 L230.5,-197.5 L198.5,-197.5 Z" style="fill:rgb(170,31,95);stroke:none;"/>
    <path d="M165.0,-198.5 C173.830640391904,-198.5 181.0,-205.669359608096 181.0,-214.5 C181.0,-223.330640391904 173.830640391904,-230.5 165.0,-230.5 C156.169359608096,-230.5 149.0,-223.330640391904 149.0,-214.5 C149.0,-205.669359608096 156.169359608096,-198.5 165.0,-198.5 Z" style="fill:none;stroke:rgb(170,31,95);stroke-miterlimit:10;"/>
    <path d="M165.0,-198.5 C173.830640391904,-198.5 181.0,-205.669359608096 181.0,-214.5 C181.0,-223.330640391904 173.830640391904,-230.5 165.0,-230.5 C156.169359608096,-230.5 149.0,-223.330640391904 149.0,-214.5 C149.0,-205.669359608096 156.169359608096,-198.5 165.0,-198.5 Z" style="fill:rgb(157,54,42);stroke:none;"/>
    <path d="M132.5,-263.5 L148.5,-231.5 L164.5,-263.5 L132.5,-263.5 Z" style="fill:none;stroke:rgb(157,54,42);stroke-miterlimit:10;"/>
    <path d="M132.5,-263.5 L148.5,-231.5 L164.5,-263.5 L132.5,-263.5 Z" style="fill:rgb(218,157,86);stroke:none;"/>
    <path d="M165.5,-263.5 L181.5,-231.5 L197.5,-263.5 L165.5,-263.5 Z" style="fill:none;stroke:rgb(218,157,86);stroke-miterlimit:10;"/>
    <path d="M165.5,-263.5 L181.5,-231.5 L197.5,-263.5 L165.5,-263.5 Z" style="fill:rgb(119,75,45);stroke:none;"/>
    <path d="M215.0,-230.5 L231.0,-198.5 L247.0,-230.5 L215.0,-230.5 Z" style="fill:none;stroke:rgb(119,75,45);stroke-miterlimit:10;"/>
    <path d="M215.0,-230.5 L231.0,-198.5 L247.0,-230.5 L215.0,-230.5 Z" style="fill:rgb(194,138,71);stroke:none;"/>
    <path d="M214.5,-231.5 C223.330640391904,-231.5 230.5,-238.669359608096 230.5,-247.5 C230.5,-256.330640391904 223.330640391904,-263.5 214.5,-263.5 C205.669359608096,-263.5 198.5,-256.330640391904 198.5,-247.5 C198.5,-238.669359608096 205.669359608096,-231.5 214.5,-231.5 Z" style="fill:none;stroke:rgb(194,138,71);stroke-miterlimit:10;"/>
    <path d="M214.5,-231.5 C223.330640391904,-231.5 230.5,-238.669359608096 230.5,-247.5 C230.5,-256.330640391904 223.330640391904,-263.5 214.5,-263.5 C205.669359608096,-263.5 198.5,-256.330640391904 198.5,-247.5 C198.5,-238.669359608096 205.669359608096,-231.5 214.5,-231.5 Z" style="fill:rgb(180,72,66);stroke:none;"/>
    <path d="M231.5,-263.5 L247.5,-231.5 L263.5,-263.5 L231.5,-263.5 Z" style="fill:none;stroke:rgb(180,72,66);stroke-miterlimit:10;"/>
    <path d="M231.5,-263.5 L247.5,-231.5 L263.5,-263.5 L231.5,-263.5 Z" style="fill:rgb(148,95,46);stroke:none;"/>
  </g>
</svg>
